<?xml version="1.0" encoding="utf-8"?><svg version="1.1" id="Layer_1" xmlns="http://www.w3.org/2000/svg" xmlns:xlink="http://www.w3.org/1999/xlink" x="0px" y="0px" viewBox="0 0 144 43" style="enable-background:new 0 0 144 43;" xml:space="preserve"><style type="text/css">.st0{fill:url(#SVGID_1_);}.st1{fill:#8F9D9D;}.st2{fill:url(#SVGID_2_);}.st3{fill:url(#SVGID_3_);}.st4{fill:url(#SVGID_4_);}.st5{fill:#532D89;}</style><g><g id="CC"><linearGradient id="SVGID_1_" gradientUnits="userSpaceOnUse" x1="40.6616" y1="36.197" x2="67.4994" y2="36.197"><stop  offset="0" style="stop-color:#A3B2B2"/><stop  offset="1" style="stop-color:#0D201F"/></linearGradient><path class="st0" d="M54,40.7c-4.7,0-9.2-1.8-12.7-5c-0.9-0.8-1-2.3-0.1-3.2c0.8-0.9,2.3-1,3.2-0.1c2.6,2.4,6,3.8,9.6,3.8c3.6,0,7-1.4,9.7-3.8c0.9-0.9,2.3-0.8,3.2,0.1c0.9,0.9,0.8,2.3-0.1,3.2C63.3,38.9,58.8,40.7,54,40.7z"/><g><path class="st1" d="M21,40.7c-2.5,0-4.9-0.5-7.2-1.5c-2.2-0.9-4.2-2.3-5.9-4c-1.7-1.7-3-3.7-4-5.9c-1-2.3-1.5-4.7-1.5-7.2c0-2.5,0.5-4.9,1.5-7.2c0.9-2.2,2.3-4.2,4-5.9c1.7-1.7,3.7-3,5.9-4c2.3-1,4.7-1.5,7.2-1.5c4.9,0,9.5,1.9,13,5.3c0.9,0.9,0.9,2.3,0,3.2c-0.9,0.9-2.3,0.9-3.2,0c-2.6-2.6-6.1-4-9.9-4C13.3,8,6.9,14.3,6.9,22.1c0,7.8,6.3,14.1,14.1,14.1c7.2,0,13.2-5.4,14-12.5l0.2-2.4c0.2-4.8,2.2-9.2,5.7-12.5c3.5-3.3,8.1-5.2,12.9-5.2c4.9,0,9.5,1.9,13,5.3c0.9,0.9,0.9,2.3,0,3.2c-0.9,0.9-2.3,0.9-3.2,0c-2.6-2.6-6.1-4-9.9-4c-7.6,0-13.7,5.9-14.1,13.5l0,0.1l-0.3,2.5c-0.5,4.5-2.6,8.7-6,11.8C30,39,25.6,40.7,21,40.7z"/></g><linearGradient id="SVGID_2_" gradientUnits="userSpaceOnUse" x1="2.4385" y1="22.0827" x2="67.5009" y2="22.0827"><stop  offset="0" style="stop-color:#FFFFFF;stop-opacity:0"/><stop  offset="1" style="stop-color:#516161"/></linearGradient><path class="st2" d="M21,40.7c-2.5,0-4.9-0.5-7.2-1.5c-2.2-0.9-4.2-2.3-5.9-4c-1.7-1.7-3-3.7-4-5.9c-1-2.3-1.5-4.7-1.5-7.2c0-2.5,0.5-4.9,1.5-7.2c0.9-2.2,2.3-4.2,4-5.9c1.7-1.7,3.7-3,5.9-4c2.3-1,4.7-1.5,7.2-1.5c4.9,0,9.5,1.9,13,5.3c0.9,0.9,0.9,2.3,0,3.2c-0.9,0.9-2.3,0.9-3.2,0c-2.6-2.6-6.1-4-9.9-4C13.3,8,6.9,14.3,6.9,22.1c0,7.8,6.3,14.1,14.1,14.1c7.2,0,13.2-5.4,14-12.5l0.2-2.4c0.2-4.8,2.2-9.2,5.7-12.5c3.5-3.3,8.1-5.2,12.9-5.2c4.9,0,9.5,1.9,13,5.3c0.9,0.9,0.9,2.3,0,3.2c-0.9,0.9-2.3,0.9-3.2,0c-2.6-2.6-6.1-4-9.9-4c-7.6,0-13.7,5.9-14.1,13.5l0,0.1l-0.3,2.5c-0.5,4.5-2.6,8.7-6,11.8C30,39,25.6,40.7,21,40.7z"/><linearGradient id="SVGID_3_" gradientUnits="userSpaceOnUse" x1="2.4385" y1="22.0827" x2="67.5315" y2="22.0827"><stop  offset="0" style="stop-color:#FFFFFF;stop-opacity:0"/><stop  offset="4.500133e-02" style="stop-color:#ECEDED;stop-opacity:4.500133e-02"/><stop  offset="0.1927" style="stop-color:#B2B8B7;stop-opacity:0.1927"/><stop  offset="0.3404" style="stop-color:#7F8989;stop-opacity:0.3404"/><stop  offset="0.4848" style="stop-color:#566363;stop-opacity:0.4848"/><stop  offset="0.625" style="stop-color:#364645;stop-opacity:0.625"/><stop  offset="0.7601" style="stop-color:#203130;stop-opacity:0.7601"/><stop  offset="0.8877" style="stop-color:#122423;stop-opacity:0.8877"/><stop  offset="1" style="stop-color:#0D201F"/></linearGradient><path class="st3" d="M21,40.7c-2.5,0-4.9-0.5-7.2-1.5c-2.2-0.9-4.2-2.3-5.9-4c-1.7-1.7-3-3.7-4-5.9c-1-2.3-1.5-4.7-1.5-7.2c0-2.5,0.5-4.9,1.5-7.2c0.9-2.2,2.3-4.2,4-5.9c1.7-1.7,3.7-3,5.9-4c2.3-1,4.7-1.5,7.2-1.5c4.9,0,9.5,1.9,13,5.3c0.9,0.9,0.9,2.3,0,3.2c-0.9,0.9-2.3,0.9-3.2,0c-2.6-2.6-6.1-4-9.9-4C13.3,8,6.9,14.3,6.9,22.1c0,7.8,6.3,14.1,14.1,14.1c7.2,0,13.2-5.4,14-12.5l0.2-2.4c0.2-4.8,2.2-9.2,5.7-12.5c3.5-3.3,8.1-5.2,12.9-5.2c4.9,0,9.5,1.9,13,5.3c0.9,0.9,1,2.3,0.1,3.2c-0.9,0.9-2.4,0.9-3.2,0c-2.6-2.6-6.1-4-9.9-4c-7.6,0-13.7,5.9-14.1,13.5l0,0.1l-0.3,2.5c-0.5,4.5-2.6,8.7-6,11.8C30,39,25.6,40.7,21,40.7z"/><g><linearGradient id="SVGID_4_" gradientUnits="userSpaceOnUse" x1="11.3453" y1="29.1847" x2="24.1526" y2="2.9259"><stop  offset="0.1166" style="stop-color:#FFFFFF;stop-opacity:0"/><stop  offset="0.453" style="stop-color:#D7DDDD;stop-opacity:0.3809"/><stop  offset="0.8106" style="stop-color:#B1BEBE;stop-opacity:0.7856"/><stop  offset="1" style="stop-color:#A3B2B2"/></linearGradient><path class="st4" d="M2.4,22.1c0-2.5,0.5-4.9,1.5-7.2c0.9-2.2,2.3-4.2,4-5.9c1.7-1.7,3.7-3,5.9-4c2.3-1,4.7-1.5,7.2-1.5c4.9,0,9.5,1.9,13,5.3c0.9,0.9,0.9,2.3,0,3.2c-0.9,0.9-2.3,0.9-3.2,0c-2.6-2.6-6.1-4-9.9-4C13.3,8,6.9,14.3,6.9,22.1S2.4,24.6,2.4,22.1z"/></g></g><g id="Crown"><g><g><path class="st5" d="M83,33.3C83,33.3,83,33.3,83,33.3c-1.1,1-2,1.6-3.5,1.6c-2.3,0-4-1.9-4-4.3v0c0-2.4,1.8-4.3,4-4.3c1.2,0,2.3,0.5,3.4,1.5c0,0,0,0,0,0c0,0,0,0,0,0l1.4-1.6c0,0,0,0,0,0c-1-0.9-2.3-1.9-4.8-1.9c-1.8,0-3.4,0.7-4.5,1.9c-1.1,1.2-1.8,2.8-1.8,4.5v0c0,1.7,0.6,3.3,1.8,4.5c1.2,1.2,2.7,1.8,4.4,1.8c1.1,0,2-0.2,2.9-0.6c0.7-0.3,1.4-0.8,2.1-1.6c0,0,0,0,0,0L83,33.3z M74.5,34.5C74.5,34.5,74.5,34.5,74.5,34.5C74.5,34.5,74.5,34.5,74.5,34.5z M74.6,34.6C74.6,34.6,74.6,34.6,74.6,34.6C74.6,34.6,74.6,34.6,74.6,34.6z M74.7,34.7C74.7,34.8,74.7,34.8,74.7,34.7C74.7,34.8,74.7,34.8,74.7,34.7z M74.8,34.8C74.8,34.9,74.8,34.9,74.8,34.8C74.8,34.9,74.8,34.9,74.8,34.8z M74.9,35C74.9,35,74.9,35,74.9,35C74.9,35,74.9,35,74.9,35z M75,35.1C75,35.1,75,35.1,75,35.1C75,35.1,75,35.1,75,35.1z"/><path class="st5" d="M130.6,34.7h-6.4V24.5c0,0,0,0,0,0H122c0,0,0,0,0,0v12.2c0,0,0,0,0,0h8.6c0,0,0,0,0,0L130.6,34.7C130.6,34.7,130.6,34.7,130.6,34.7z"/><path class="st5" d="M142,34.7h-7v-3.2h6.1c0,0,0,0,0,0v-1.9c0,0,0,0,0,0H135v-3.1h6.9c0,0,0,0,0,0v-1.9c0,0,0,0,0,0h-9.1c0,0,0,0,0,0v12.2c0,0,0,0,0,0h9.1c0,0,0,0,0,0L142,34.7C142,34.7,142,34.7,142,34.7z"/><path class="st5" d="M119.8,24.4h-9.9c0,0,0,0,0,0v2c0,0,0,0,0,0h3.9v10.2c0,0,0,0,0,0h2.2c0,0,0,0,0,0V26.5h3.9c0,0,0,0,0,0L119.8,24.4C119.8,24.5,119.8,24.4,119.8,24.4z"/><path class="st5" d="M107.5,30.8c-0.6-0.5-1.5-0.9-2.9-1.3c-2.3-0.5-2.9-0.9-2.9-1.9v0c0-0.4,0.2-0.8,0.5-1c0.4-0.3,0.9-0.4,1.5-0.4c1.1,0,2.2,0.4,3.3,1.3c0,0,0,0,0,0c0,0,0,0,0,0l1.2-1.6c0,0,0,0,0,0c-1.3-1-2.7-1.5-4.4-1.5c-1.2,0-2.2,0.4-3,1c-0.8,0.6-1.2,1.6-1.2,2.6v0c0,1.1,0.3,1.9,1.1,2.4c0.6,0.5,1.5,0.9,3,1.2c2.3,0.5,2.7,1,2.7,1.9v0c0,0.9-0.9,1.5-2.1,1.5c-1.4,0-2.6-0.5-3.8-1.6c0,0,0,0,0,0c0,0,0,0,0,0L99,34.9c0,0,0,0,0,0c1.4,1.3,3.2,2,5.1,2c2.7,0,4.4-1.4,4.4-3.7v0C108.5,32.2,108.2,31.4,107.5,30.8z"/><path class="st5" d="M92.6,24.4C92.6,24.4,92.6,24.4,92.6,24.4l-2,0c0,0,0,0,0,0l-5.4,12.3c0,0,0,0,0,0c0,0,0,0,0,0h2.2c0,0,0,0,0,0l1.3-2.9h5.8l1.2,2.9c0,0,0,0,0,0h2.3c0,0,0,0,0,0c0,0,0,0,0,0c0,0,0,0,0,0L92.6,24.4z M93.6,31.8h-4.2l2.1-4.8L93.6,31.8z"/></g><g><path class="st5" d="M129.5,8h-2.2c0,0,0,0,0,0l-2.9,8.9l-3-9c0,0,0,0,0,0h-1.8c0,0,0,0,0,0l-3,9L113.8,8c0,0,0,0,0,0h-2.3c0,0,0,0,0,0c0,0,0,0,0,0l4.2,12.2c0,0,0,0,0,0h1.8c0,0,0,0,0,0l3-8.6l3,8.6c0,0,0,0,0,0h1.8c0,0,0,0,0,0L129.5,8C129.5,8,129.5,8,129.5,8C129.5,8,129.5,8,129.5,8z"/><path class="st5" d="M82.9,16.8C82.9,16.8,82.9,16.8,82.9,16.8c-1,1-2,1.5-3.5,1.5c-2.3,0-4-1.8-4-4.3v0c0-2.4,1.7-4.2,4-4.2c1.2,0,2.3,0.5,3.4,1.5c0,0,0,0,0,0c0,0,0,0,0,0l1.4-1.6c0,0,0,0,0,0c-1-0.9-2.3-1.9-4.7-1.9c-1.7,0-3.3,0.7-4.5,1.8c-1.1,1.2-1.7,2.7-1.7,4.4v0c0,1.7,0.6,3.3,1.8,4.4c1.1,1.2,2.7,1.8,4.4,1.8c1.1,0,2-0.2,2.8-0.6c0.7-0.3,1.4-0.8,2.1-1.6c0,0,0,0,0,0L82.9,16.8z M74.8,18.4C74.8,18.4,74.8,18.4,74.8,18.4C74.8,18.4,74.8,18.4,74.8,18.4z"/><path class="st5" d="M104.5,7.8c-1.8,0-3.4,0.7-4.6,1.9c-1.1,1.2-1.8,2.7-1.8,4.4v0c0,1.7,0.6,3.2,1.8,4.4c1.2,1.2,2.8,1.8,4.6,1.8c1.8,0,3.4-0.7,4.6-1.9c1.1-1.2,1.8-2.7,1.8-4.4v0c0-1.7-0.6-3.2-1.8-4.4C107.9,8.5,106.3,7.8,104.5,7.8z M100.4,14c0-2.4,1.7-4.2,4.1-4.2c2.3,0,4.1,1.9,4.1,4.3v0c0,2.4-1.7,4.2-4.1,4.2C102.2,18.3,100.4,16.5,100.4,14L100.4,14z"/><path class="st5" d="M142,8h-2.1c0,0,0,0,0,0v8.3L133.4,8c0,0,0,0,0,0h-2c0,0,0,0,0,0v12.1c0,0,0,0,0,0h2.1c0,0,0,0,0,0v-8.6l6.6,8.6c0,0,0,0,0,0h1.8c0,0,0,0,0,0L142,8C142,8,142,8,142,8z"/><path class="st5" d="M93.6,15.5c1.8-0.5,2.9-1.8,2.9-3.7v0c0-1-0.3-1.9-1-2.6c-0.8-0.8-2-1.2-3.5-1.2h-5.4c0,0,0,0,0,0v12.1c0,0,0,0,0,0h2.1c0,0,0,0,0,0v-4.2h2.6l3,4.2c0,0,0,0,0,0h2.5c0,0,0,0,0,0c0,0,0,0,0,0c0,0,0,0,0,0L93.6,15.5z M88.7,10h3.1c1.6,0,2.5,0.7,2.5,2v0c0,1.2-1,2-2.5,2h-3.1V10z"/></g></g></g></g></svg>